<svg width="50" height="50" viewBox="0 0 50 50" fill="none" xmlns="http://www.w3.org/2000/svg">
<path d="M10.7494 7.5H47.5L42.5 25H13.4418M45 35H15L10 2.5H2.5M17.5 45C17.5 46.3807 16.3807 47.5 15 47.5C13.6193 47.5 12.5 46.3807 12.5 45C12.5 43.6193 13.6193 42.5 15 42.5C16.3807 42.5 17.5 43.6193 17.5 45ZM45 45C45 46.3807 43.8807 47.5 42.5 47.5C41.1193 47.5 40 46.3807 40 45C40 43.6193 41.1193 42.5 42.5 42.5C43.8807 42.5 45 43.6193 45 45Z" stroke="white" stroke-width="5" stroke-linecap="round" stroke-linejoin="round"/>
</svg>
